# xmcd CD database file
#
# Track frame offsets:
#	150
#	13613
#	24981
#	40697
#	55091
#	69088
#	84350
#	102524
#	116605
#	130689
#	145317
#	156678
#	169195
#
# Disc length: 2409 seconds
#
# Revision: 1
# Processed by: cddbd v1.4PL0 Copyright (c) Steve Scherf et al.
# Submitted via: CDex 1.40Beta9
#
DISCID=a409670d
DTITLE=Tchê Guri - Eu Sou Daqui
DYEAR=2000
DGENRE=Gauchesca
TTITLE0=Quando a gaita roncar
TTITLE1=Eu sou daqui
TTITLE2=Não dá mais
TTITLE3=Bonitão do bailão
TTITLE4=Do teu guri
TTITLE5=Mulherão
TTITLE6=Indecisão
TTITLE7=Recadinho
TTITLE8=Coisas da vida
TTITLE9=Eu sou de são léo
TTITLE10=Destino
TTITLE11=Tem que ter café
TTITLE12=Trem da alegria
EXTD=YEAR: 2000
EXTT0=
EXTT1=
EXTT2=
EXTT3=
EXTT4=
EXTT5=
EXTT6=
EXTT7=
EXTT8=
EXTT9=
EXTT10=
EXTT11=
EXTT12=
PLAYORDER=
